<?xml version="1.0" encoding="utf-8"?>
<!-- Generator: Adobe Illustrator 24.1.2, SVG Export Plug-In . SVG Version: 6.00 Build 0)  -->
<svg version="1.1" id="Layer_1" xmlns="http://www.w3.org/2000/svg" xmlns:xlink="http://www.w3.org/1999/xlink" x="0px" y="0px"
	 viewBox="0 0 553.7 159.1" style="enable-background:new 0 0 553.7 159.1;" xml:space="preserve">
<style type="text/css">
	.st0{fill:#FFFFFF;}
</style>
<path class="st0" d="M125,47.6c-13,5-15.6,11.4-18.8,39.2c-3,25.9-6.8,37.4-16.9,47.9c-11.2,11.6-36.9,24.4-59.4,24.4
	c-17.5,0-29.9-8-29.9-20.2c0-7.4,2.6-10.6,13.2-14.4l17.2-6c1.9-16.1,7.2-45.1,17.2-58.6c5.8-7.9,23.8-18,32.1-18
	c8.2,0,11.7,3.4,16.2,5.9c5.5-5,9.3-6.9,15.3-6.9c4.7,0.1,9.3,0.9,13.8,2.1V47.6z M80.8,85.7c-8.7,16.1-28.4,29.5-47.7,38.3
	c-5,2.2-6.8,4-6.8,7.7c0,8.8,10.6,15.4,24.4,15.4c15.6,0,20.6-11.9,24.4-32.8c2.2-12.1,3.5-16.6,8.2-28L80.8,85.7z M60.1,99
	c11.2-7.7,20.7-19.1,28.1-32.1c-5.1-3.5-10.5-6.5-16.2-9c-6,13-10.8,26.5-14.5,40.3L60.1,99z"/>
<path class="st0" d="M212.8,86.3c-13,15.6-26.8,32.6-44.4,32.6c-6.9,0-9.8-2.4-9.8-5.6c0-3.7,2.7-8.5,13-30l-3.2-1.8
	c-10,15.4-30.7,37.4-40.8,37.4c-1.1,0-3.2-0.6-6.7-2.7c-3.9-2.2-5.1-4-5.1-6.4c0-13.3,5.6-33.4,16.1-49.2
	c6.6-9.8,26.3-18.7,35.7-18.7c5.3,0,9.6,3.2,15.9,8.2c4.5-5.9,8-10,13.3-10c3.7,0,6.8,2.2,6.8,6.9c0,2.4-0.8,5.6-2.9,11.2
	l-15.3,41.4l1.6,1.1c7.2-4.5,14-11.2,21.7-18.6L212.8,86.3z M158.7,53.8c-6.1,13.6-11.3,27.5-15.7,41.8l2.9,1.6
	c10-9.3,18.9-19.7,26.7-31L158.7,53.8z"/>
<path class="st0" d="M315.1,86.8c-13.8,18.3-29.9,32.1-44.3,32.1c-4.7,0-9.2-1.5-13-4.2l15.1-30l-4-2.1c-15.3,26.8-36,36.3-44,36.3
	c-1.9,0-4-1.1-6.4-3c-3.4-2.7-4.3-4.5-4.3-6.3c0-3.2,1.6-6.8,5.1-15.3l13.5-32.3l-1.4-1.6c-6.6,3.7-12.9,9.5-20.2,16.1l-4.7-3.3
	c13.7-18.8,29.6-31.4,41.8-31.4c8,0,12,3.8,12,10.1c0,5.8-2.7,13.8-8,25.7l-10,22.5l3,1.3c10.4-7.1,19.3-21.7,29.1-40.8
	c8.6-16.8,11.8-18.8,18.4-18.8c6.3,0,10.9,4.2,10.9,10.6c0,4.5-1.9,10.4-6.3,20.4l-11.4,26.3l2.4,1.4c7.5-4.3,18.5-14,22.2-18.2
	L315.1,86.8z"/>
<path class="st0" d="M384.2,85.8c-17,21.8-38.1,33.1-46.1,33.1c-5,0-8.4-0.6-14.3-5.3c-4.5-3.7-6.6-7.2-6.6-11.1
	c0-17.5,7.1-36.9,15.9-45.6c8.5-8.4,28-15.1,36.5-15.1c9.5,0,19.4,7.2,19.4,11.7c0,2.6-1.3,4-15.7,18.3c-6-6.2-12.6-11.8-19.6-16.9
	c-6.8,18.6-10.1,33.6-10.1,41.9c0,2.9,1.5,4.3,4.8,4.3c6.9,0,22.2-11.6,32.1-19L384.2,85.8z"/>
<path class="st0" d="M443.4,2.6l-26.7,76.3l2.6,1.4c9.1-16.7,23.7-38.5,41.9-38.5c8.2,0,13.6,5.5,13.6,13.7
	c0,15.1-7.9,33.9-16.4,45.8c-8.8,12.2-24.6,17.7-32.3,17.7c-5.9,0-10-3.4-10-10c0-5.7,4.6-10.4,10.3-10.6l4.8,10h1.6
	c5.6-12.7,14.6-39,14.6-45.5c0-2.1-1-3.4-2.4-3.4c-6.4,0-14.9,13.5-21.2,24.2c-17.1,29.2-19.2,35.1-29,35.1c-5.1,0-9.5-3.5-9.5-9.8
	c0-5,1.8-10.4,3.4-15.7l17.8-56.7c1.9-5.9,2.6-8.4,2.6-9.8c0-2.1-1.6-3.7-3.7-5.3l-7.9-5.9l1.1-3.2L438.2,0L443.4,2.6z"/>
<path class="st0" d="M503.6,118.8c-16.7,0-25.7-7.2-25.7-21.7c0-21.5,14.1-55.4,48.8-55.4c16.7,0.1,25.7,7.3,25.7,21.7
	C552.4,85,538.2,118.8,503.6,118.8z M523.3,50.8c-3.2,0-6.8,3.9-11.2,14.6c-7.5,18-9.5,32.3-9.5,38.5c0,4.7,1.6,5.9,4.3,5.9
	c3.2,0,6.7-3.8,11.2-14.6c7.5-18,9.5-32.3,9.5-38.5C527.6,52.1,526,50.8,523.3,50.8L523.3,50.8z"/>
</svg>
