<svg id="Layer_1" data-name="Layer 1" xmlns="http://www.w3.org/2000/svg" viewBox="0 0 553.68 159.05"><path d="M125,47.58c-13,5-15.58,11.4-18.79,39.19-3,25.86-6.75,37.43-16.87,47.87-11.24,11.56-36.93,24.41-59.43,24.41-17.51,0-29.87-8-29.87-20.24,0-7.39,2.57-10.6,13.17-14.45l17.2-6c1.93-16.06,7.23-45.13,17.19-58.62,5.78-7.87,23.77-18,32.13-18,8.19,0,11.72,3.37,16.22,5.94,5.46-5,9.31-6.91,15.26-6.91A56.16,56.16,0,0,1,125,42.91ZM80.79,85.65C72.12,101.71,52.36,115.2,33.09,124c-5,2.25-6.75,4-6.75,7.71,0,8.84,10.6,15.42,24.41,15.42,15.58,0,20.56-11.88,24.42-32.76,2.25-12.05,3.53-16.55,8.19-28ZM60.07,99c11.24-7.71,20.72-19.12,28.11-32.13a99.53,99.53,0,0,0-16.22-9A242,242,0,0,0,57.5,98.16Z"/><path d="M212.82,86.29c-13,15.56-26.82,32.56-44.45,32.56-6.91,0-9.8-2.4-9.8-5.62,0-3.69,2.73-8.51,13-30l-3.2-1.76c-10,15.38-30.72,37.38-40.84,37.38-1.12,0-3.21-.64-6.74-2.73-3.86-2.24-5.14-4-5.14-6.42,0-13.33,5.62-33.41,16.06-49.15,6.58-9.76,26.34-18.7,35.66-18.7,5.3,0,9.63,3.21,15.9,8.19,4.5-5.94,8-10,13.33-10,3.69,0,6.75,2.25,6.75,6.91,0,2.41-.81,5.62-2.89,11.24L185.2,99.63l1.6,1.12c7.23-4.49,14-11.24,21.69-18.63ZM158.69,53.85A355.31,355.31,0,0,0,143,95.61l2.89,1.61a186.43,186.43,0,0,0,26.67-31Z"/><path d="M315.14,86.77c-13.77,18.31-29.87,32.08-44.33,32.08a22.85,22.85,0,0,1-13-4.17l15.1-30-4-2.09c-15.26,26.83-36,36.3-44,36.3-1.93,0-4-1.12-6.42-3-3.38-2.73-4.34-4.49-4.34-6.26,0-3.21,1.61-6.75,5.14-15.26l13.49-32.28-1.44-1.61c-6.59,3.69-12.85,9.48-20.24,16.06l-4.73-3.26C220.05,54.49,236,41.85,248.16,41.85c8,0,12,3.85,12,10.12,0,5.78-2.73,13.81-8,25.7l-10,22.48,3,1.29c10.44-7.07,19.28-21.69,29.07-40.8,8.63-16.79,11.84-18.79,18.42-18.79,6.27,0,10.93,4.17,10.93,10.6,0,4.5-1.93,10.44-6.27,20.4l-11.4,26.34,2.41,1.44c7.55-4.33,18.47-14,22.16-18.15Z"/><path d="M384.21,85.85c-17,21.84-38.07,33.08-46.1,33.08-5,0-8.35-.64-14.3-5.3-4.49-3.69-6.58-7.22-6.58-11.08,0-17.51,7.07-36.94,15.9-45.61,8.51-8.36,27.95-15.1,36.46-15.1,9.48,0,19.44,7.22,19.44,11.72,0,2.57-1.29,4-15.74,18.31A145.77,145.77,0,0,0,353.69,55c-6.75,18.63-10.12,33.57-10.12,41.92,0,2.89,1.45,4.34,4.82,4.34,6.91,0,22.17-11.57,32.13-19Z"/><path d="M443.37,2.61,416.71,78.9l2.57,1.45c9.09-16.71,23.72-38.5,41.87-38.5,8.19,0,13.65,5.46,13.65,13.65,0,15.1-7.87,33.89-16.38,45.78-8.84,12.2-24.58,17.66-32.29,17.66-5.94,0-10-3.37-10-10a10.69,10.69,0,0,1,10.28-10.6l4.82,10h1.61c5.62-12.69,14.62-39,14.62-45.45,0-2.09-1-3.37-2.42-3.37-6.42,0-14.93,13.49-21.2,24.25-17.14,29.18-19.23,35.08-29,35.08-5.14,0-9.48-3.53-9.48-9.79,0-5,1.77-10.44,3.38-15.74l17.83-56.7c1.93-5.94,2.57-8.36,2.57-9.8,0-2.09-1.61-3.7-3.7-5.3l-7.87-5.94,1.13-3.22L438.18,0Z"/><path d="M503.56,118.85c-16.71,0-25.7-7.22-25.7-21.68,0-21.52,14.13-55.41,48.82-55.41,16.69.09,25.69,7.26,25.69,21.72C552.37,85,538.25,118.85,503.56,118.85Zm19.75-68.1c-3.21,0-6.75,3.86-11.24,14.62-7.55,18-9.48,32.28-9.48,38.55,0,4.66,1.61,5.94,4.34,5.94,3.21,0,6.74-3.85,11.24-14.62,7.55-18,9.48-32.28,9.48-38.55,0-4.61-1.61-5.9-4.34-5.9Z"/></svg>